# xmcd
#
# Track frame offsets:
#	150
#	18550
#	34079
#	52943
#	68872
#	84849
#	103568
#	119145
#	137450
#	154630
#	180957
#	195446
#	211351
#	228062
#	243969
#	276261
#
# Disc length: 3689 seconds
#
# Revision: 1
# Processed by: cddbd v1.5.1PL2 Copyright (c) Steve Scherf et al.
# Submitted via: audiograbber 1.83.01
#
DISCID=c90e6710
DTITLE=All Star Karaoke Best of Country 2005 - ASK1532
DYEAR=1900
DGENRE=Country
TTITLE0=Big and Rich - Holy Water
TTITLE1=Blake Shelton - Some Beach
TTITLE2=Brad Paisley - Two People Fell In Love
TTITLE3=Brooks and Dunn - That's What It's All About
TTITLE4=Carolyn Dawn Johnson - Die Of A Broken Heart
TTITLE5=Gretchen Wilson - When I Think About Cheatin'
TTITLE6=Jamie O'Neal - Trying To Find Atlantis
TTITLE7=Kenny Chesney - Woman With You, The
TTITLE8=Lee Ann Womack - I May Hate Myself In The Morning
TTITLE9=Martina McBride - God's Will
TTITLE10=Martina McBride - In My Daughter's Eyes
TTITLE11=Montgomery Gentry - If You Ever Stop Loving Me
TTITLE12=Reba McEntire - He Gets That From Me
TTITLE13=Shania Twain and Billy Currington - Party For Two
TTITLE14=Tim McGraw - Back When
TTITLE15=Dont Copy - Data Track
EXTD=
EXTT0=
EXTT1=
EXTT2=
EXTT3=
EXTT4=
EXTT5=
EXTT6=
EXTT7=
EXTT8=
EXTT9=
EXTT10=
EXTT11=
EXTT12=
EXTT13=
EXTT14=
EXTT15=
PLAYORDER=
